<svg xmlns="http://www.w3.org/2000/svg" width="160" height="112.217" viewBox="0 0 160 112.217">
  <g id="svgexport-7" transform="translate(0 -19.105)">
    <path id="Path_283" data-name="Path 283" d="M157.53,56.336l.042-.02A2.5,2.5,0,0,0,160,53.836a2.472,2.472,0,0,0-2.472-2.5c-.7-.225-2.555-3.267-2.555-8.748s1.852-8.524,2.557-8.749l.035-.017a2.5,2.5,0,0,0,.2-4.964L77.207,19.384a40.039,40.039,0,0,0-9.441,0L9.7,26.358H9.663c-4.7.325-7.164,7.059-7.164,13.73a19.581,19.581,0,0,0,3,11.248,19.569,19.569,0,0,0-3,11.248,20.158,20.158,0,0,0,2.75,10.893C1.8,76.952,0,84.161,0,91.33c0,9.853,3.377,19.829,9.833,20l84.858,9.983a2.284,2.284,0,0,0,.292.015,2.363,2.363,0,0,0,.3-.017l19.7-2.365v9.881a2.5,2.5,0,0,0,1.832,2.41,2.554,2.554,0,0,0,.667.09,2.5,2.5,0,0,0,2.142-1.212l5.587-9.312,5.269,7.024a2.5,2.5,0,0,0,4.5-1.5v-9.778l22.794-2.737a2.5,2.5,0,0,0-.3-4.981c-1.75,0-5-5.694-5-15,0-9.223,3.069-14.562,5-15a2.519,2.519,0,0,0,2.527-2.5,2.475,2.475,0,0,0-2.192-2.48,2.851,2.851,0,0,0-.3-.02c-.717-.275-2.537-3.31-2.537-8.749C154.973,59.585,156.825,56.56,157.53,56.336ZM80.7,114.628a30.955,30.955,0,0,1-3.217-15.275,33.092,33.092,0,0,1,2.882-14.747l8.231.967a31.593,31.593,0,0,0-3.614,15.755,34.568,34.568,0,0,0,2.75,14.127Zm-10.088-1.187A31.544,31.544,0,0,1,67.488,98.3a32.346,32.346,0,0,1,2.964-14.85l4.674.55a40.675,40.675,0,0,0-2.64,15.35,42.059,42.059,0,0,0,2.367,14.588Zm-40.4-4.749a33.972,33.972,0,0,1-2.667-14.247,29.654,29.654,0,0,1,3.479-15.612l33.9,3.982c.075,0,.142.045.217.045a.452.452,0,0,0,.058,0A40.726,40.726,0,0,0,62.489,98.3,42.4,42.4,0,0,0,64.8,112.758Zm-9.981-1.172a33.745,33.745,0,0,1-2.685-14.29A29.667,29.667,0,0,1,21,77.642l4.654.547a38.814,38.814,0,0,0-3.114,16.247,43.453,43.453,0,0,0,2,13.593ZM10.053,71.333c-.7-.225-2.555-3.267-2.555-8.748,0-5.434,1.815-8.464,2.48-8.734l11.84,1.38c.042,0,.075.032.115.037l50.276,5.9a29.761,29.761,0,0,0-1.6,10.166,33.129,33.129,0,0,0,.772,7.2l-4.782-.56a22.3,22.3,0,0,1-1.615-9.141,19.667,19.667,0,0,1,.5-4.437,2.5,2.5,0,0,0-4.872-1.125,24.82,24.82,0,0,0-.627,5.562,31.441,31.441,0,0,0,1.087,8.5L30.112,73.693H30.06L20.1,72.518h-.065ZM24.1,33.01,33.8,34.147h.025l55.54,6.546a22.361,22.361,0,0,0-1.882,9.393,23.942,23.942,0,0,0,1.312,8L34.7,51.734a30.191,30.191,0,0,1-.955-7.9,36.87,36.87,0,0,1,.287-4.679,2.5,2.5,0,1,0-4.959-.64,41.864,41.864,0,0,0-.327,5.319,37.931,37.931,0,0,0,.682,7.279l-5.579-.655A26.028,26.028,0,0,1,22.5,41.338a22.368,22.368,0,0,1,1.6-8.329Zm70.888,8.329h0a2.325,2.325,0,0,0,.295-.018l55.99-6.711a23.923,23.923,0,0,0-1.295,7.979A22.3,22.3,0,0,0,151.866,52L95.011,58.813c-.725-.287-2.527-3.294-2.527-8.726C92.484,44.605,94.334,41.563,94.984,41.338ZM76.737,79.162a25.694,25.694,0,0,1-1.125-7.829,20.213,20.213,0,0,1,1.83-9.551l11.933,1.4a22.31,22.31,0,0,0-1.89,9.4,23.94,23.94,0,0,0,1.312,8Zm18.282,2.15c-.73-.287-2.535-3.295-2.535-8.729,0-5.482,1.85-8.524,2.5-8.748a2.363,2.363,0,0,0,.3-.017l55.99-6.711a23.923,23.923,0,0,0-1.3,7.979,22.051,22.051,0,0,0,1.95,9.4Zm-26.66-56.97a35.151,35.151,0,0,1,8.261,0l59.69,7.019L94.984,36.322,34.412,29.183h-.025l-3.172-.373Zm-58.392,7L18.984,32.4A27.724,27.724,0,0,0,17.5,41.338a36.245,36.245,0,0,0,.932,8.471l-8.376-.972c-.7-.225-2.555-3.267-2.555-8.748,0-5.394,1.79-8.424,2.467-8.736ZM10,106.327c-1.75,0-5-5.694-5-15,0-9.249,3.194-14.913,4.962-14.985l5.684.667a38.909,38.909,0,0,0-3.1,16.217,43.306,43.306,0,0,0,2.022,13.618l-4.279-.5A2.286,2.286,0,0,0,10,106.327Zm116.98,8.5a2.462,2.462,0,0,0-2.13-1,2.5,2.5,0,0,0-2,1.21l-2.87,4.764V98.358l10-1.2v21.671Zm8-3.317V96.551l1.57-.19a2.5,2.5,0,0,0-.592-4.967l-3.749.455h-.018l-15,1.8c-.028,0-.05.02-.078.023L114,94.049a2.5,2.5,0,0,0,.287,4.981,2.382,2.382,0,0,0,.295-.017l.4-.05v14.945l-20,2.4-.22-.025c-1.725-.417-4.779-5.749-4.779-14.955,0-9.3,3.249-15,5-15a2.363,2.363,0,0,0,.3-.017l54.943-6.586a34.54,34.54,0,0,0-2.75,14.1,31.7,31.7,0,0,0,3.6,15.747Z" transform="translate(0 0)" fill="#185adb"/>
  </g>
</svg>
